<?xml version="1.0" encoding="UTF-8"?>
<svg id="Layer_2" data-name="Layer 2" xmlns="http://www.w3.org/2000/svg" viewBox="0 0 152.44 126.1">
  <defs>
    <style>
      .cls-1 {
        fill: #01243d;
      }
    </style>
  </defs>
  <g id="Layer_1-2" data-name="Layer 1">
    <path class="cls-1" d="M28.05,48.94c2.16,1.83,4.17,3.56,6.2,5.26,7.03,5.91,14.09,11.77,21.06,17.75,1.72,1.47,3.45,2.26,5.74,2.16,3.36-.14,6.73,0,10.08-.13.84-.03,1.87-.46,2.47-1.06,4-3.95,7.94-7.95,11.81-12.02,1.17-1.23,2.07-1.35,3.49-.38,4.41,3.01,8.92,5.87,13.38,8.81,1.92,1.27,1.92,1.44.27,3.01-6.8,6.47-13.59,12.95-20.44,19.37-.62.58-1.68.97-2.54.97-8.16.07-16.33-.05-24.5.07-2.57.04-4.02-1.68-5.64-3.01-15.96-13.06-31.83-26.23-47.75-39.32-1.44-1.19-1.38-1.99-.05-3.25,13.54-12.8,27.03-25.65,40.54-38.49,2.53-2.41,4.95-4.93,7.6-7.2.95-.81,2.41-1.43,3.64-1.44,22.16-.08,44.33-.06,66.49.02,1.11,0,2.45.53,3.28,1.27,9.32,8.28,18.58,16.63,27.8,25.01.69.63,1.35,1.7,1.37,2.57.11,6.45.06,12.89.04,19.34,0,.19-.12.38-.27.85-3.06,0-6.19,0-9.32,0-1.92,0-3.85-.09-5.76.05-1.62.11-1.99-.61-1.97-2.04.06-3.64-.05-7.28.07-10.91.06-1.74-.48-2.92-1.89-4-5.77-4.41-11.42-8.97-17.19-13.37-.85-.65-2.12-1.08-3.19-1.08-18.25-.06-36.5-.05-54.76.02-.86,0-1.97.39-2.53,1-8.76,9.44-17.44,18.94-26.14,28.44-.45.49-.85,1.03-1.41,1.72Z"/>
    <path class="cls-1" d="M.07,65.61c.89.53,1.38.75,1.77,1.07,12.63,10.53,25.26,21.07,37.89,31.61,3.47,2.9,6.89,5.86,10.45,8.65.88.69,2.21,1.15,3.33,1.16,13.17.08,26.35.03,39.52.09,1.8,0,3.11-.58,4.34-1.84,9.44-9.66,18.92-19.27,28.37-28.9.47-.48.85-1.04,1.42-1.76-1.62-1.42-3.13-2.78-4.69-4.08-8.65-7.27-17.3-14.54-25.99-21.76-.52-.43-1.36-.65-2.05-.66-4.05-.08-8.1-.13-12.14-.03-.85.02-1.82.55-2.51,1.11-5,4.06-9.97,8.16-14.88,12.33-1.24,1.05-2.01,1.19-3.22-.08-2.93-3.07-6.01-6-9.05-8.96-1.19-1.16-1.52-1.98.11-3.23,6.73-5.17,13.32-10.53,20.04-15.72.94-.73,2.32-1.24,3.5-1.26,8.64-.11,17.29-.11,25.94-.01,1.11.01,2.43.56,3.28,1.29,10.42,9,20.78,18.09,31.15,27.15,4.75,4.15,9.49,8.31,14.29,12.4,1.25,1.07,1.49,1.77.21,3.1-11.98,12.34-23.88,24.75-35.81,37.14-3.28,3.41-6.51,6.86-9.91,10.15-.83.8-2.22,1.43-3.35,1.43-17.91.09-35.82.02-53.73.1-2.71.01-4-2-5.64-3.37-13.41-11.2-26.68-22.55-40.07-33.76-1.83-1.54-2.71-3.08-2.63-5.56.2-5.75.06-11.51.06-17.8Z"/>
  </g>
</svg>